<?xml version="1.0" standalone="no"?>
<!DOCTYPE svg PUBLIC "-//W3C//DTD SVG 20010904//EN"
 "http://www.w3.org/TR/2001/REC-SVG-20010904/DTD/svg10.dtd">
<svg version="1.0" xmlns="http://www.w3.org/2000/svg"
 width="200.000000pt" height="200.000000pt" viewBox="0 0 200.000000 200.000000"
 preserveAspectRatio="xMidYMid meet">
<metadata>
Created by potrace 1.15, written by Peter Selinger 2001-2017
</metadata>
<g transform="translate(0.000000,200.000000) scale(0.100000,-0.100000)"
fill="#000000" stroke="none">
<path d="M800 1986 c-306 -64 -563 -263 -700 -541 -79 -159 -95 -236 -95 -445
0 -209 16 -286 95 -445 139 -281 401 -482 708 -541 87 -16 283 -18 368 -3 411
72 741 402 813 813 15 85 13 281 -3 368 -71 370 -359 681 -721 779 -102 27
-364 36 -465 15z m379 -101 c357 -75 641 -363 708 -720 21 -109 13 -302 -17
-405 -23 -80 -87 -219 -120 -260 l-20 -25 -22 30 c-114 154 -298 283 -473 330
l-65 18 28 17 c51 31 104 93 133 155 89 187 9 406 -181 494 -47 22 -69 26
-150 26 -88 0 -101 -3 -162 -33 -131 -65 -201 -179 -202 -332 -1 -75 3 -93 30
-151 32 -67 83 -126 135 -158 l29 -18 -65 -18 c-80 -21 -186 -71 -262 -123
-57 -39 -167 -147 -211 -207 l-22 -30 -20 25 c-40 50 -101 188 -125 284 -30
117 -34 282 -10 395 73 348 352 629 698 705 85 19 279 19 366 1z m-85 -455
c61 -23 127 -87 153 -148 24 -55 22 -157 -5 -208 -33 -65 -69 -101 -127 -129
-126 -62 -274 -16 -344 107 -60 105 -48 215 34 306 78 86 181 112 289 72z
m105 -690 c149 -42 294 -135 385 -249 85 -105 84 -102 23 -157 -345 -313 -869
-313 -1214 0 -61 55 -62 52 23 157 110 138 290 240 479 270 75 12 221 2 304
-21z"/>
</g>
</svg>
